<svg xmlns="http://www.w3.org/2000/svg" viewBox="0 0 29.66 29.94"><defs><style>.cls-1,.cls-2{fill:#333;}.cls-1{fill-rule:evenodd;}</style></defs><title>icon-search</title><g id="레이어_2" data-name="레이어 2"><path class="cls-1" d="M19.85,19.6a1.63,1.63,0,0,1,2.26.33l7.38,7.45a1.65,1.65,0,0,1,.08,2.3,1.62,1.62,0,0,1-2.26-.34l-7.38-7.45A1.64,1.64,0,0,1,19.85,19.6Z" transform="translate(-0.34 -0.06)"/></g><g id="레이어_3" data-name="레이어 3"><path class="cls-2" d="M13.12,25.06a9.1,9.1,0,0,1-.91,0A12.87,12.87,0,0,1,.35,11.71h0A12.15,12.15,0,0,1,13.4.09,12.86,12.86,0,0,1,25.26,13.41,12.14,12.14,0,0,1,13.12,25.06ZM3.35,11.85A9.84,9.84,0,0,0,12.42,22a9.12,9.12,0,0,0,9.84-8.76A9.83,9.83,0,0,0,13.19,3.09a9.14,9.14,0,0,0-9.84,8.76Z" transform="translate(-0.34 -0.06)"/></g></svg>