<svg id="레이어_1" data-name="레이어 1" xmlns="http://www.w3.org/2000/svg" width="85.66" height="75.66" viewBox="0 0 85.66 75.66">
  <defs>
    <style>
      .cls-1 {
        fill: #323232;
      }

      .cls-2 {
        fill: #fff;
      }

      .cls-3 {
        fill: #333;
      }
    </style>
  </defs>
  <title>icon-mygov</title>
  <path class="cls-1" d="M602.3,1256H522.65a3,3,0,0,1-3-3,42.83,42.83,0,1,1,85.65,0A3,3,0,0,1,602.3,1256Zm-76.53-6h73.41a36.83,36.83,0,0,0-73.41,0Z" transform="translate(-519.65 -1180.34)"/>
  <circle class="cls-2" cx="42.83" cy="22.91" r="19.91"/>
  <path class="cls-3" d="M562.47,1226.17a22.92,22.92,0,1,1,22.92-22.91A22.94,22.94,0,0,1,562.47,1226.17Zm0-39.83a16.92,16.92,0,1,0,16.92,16.92A16.94,16.94,0,0,0,562.47,1186.34Z" transform="translate(-519.65 -1180.34)"/>
</svg>
